<svg width="305" height="88" viewBox="0 0 305 88" fill="none" xmlns="http://www.w3.org/2000/svg">
<path fill-rule="evenodd" clip-rule="evenodd" d="M30.976 0.599968H27.488L22.208 17.976L16.896 0.599968H14.688L9.376 17.976L4.096 0.599968H0.64L7.84 23H10.88L15.808 7.12797L20.704 23H23.744L30.976 0.599968ZM46.8388 16.152C47.6068 10.104 43.4788 6.39197 39.0628 6.39197C34.2948 6.39197 30.8388 10.232 30.8388 14.904C30.8388 19.576 34.1668 23.416 39.5428 23.416C42.3908 23.416 44.7588 22.296 46.1988 20.344L43.7988 18.808C42.9028 19.96 41.3027 20.632 39.5428 20.632C36.3747 20.632 34.3908 18.808 33.9427 16.152H46.8388ZM43.8948 13.656H33.9427C34.3908 10.968 36.2788 9.14397 39.0628 9.14397C41.8148 9.14397 43.5107 10.904 43.8948 13.656ZM53.0545 0.599968H50.1425V23H53.0545V0.599968ZM69.461 18.04C68.501 19.64 66.805 20.632 64.757 20.632C61.557 20.632 59.221 18.2 59.221 14.904C59.221 11.576 61.557 9.14397 64.757 9.14397C66.805 9.14397 68.501 10.168 69.461 11.768L71.957 10.392C70.485 8.02397 67.925 6.39197 64.757 6.39197C59.861 6.39197 56.245 10.232 56.245 14.904C56.245 19.576 59.861 23.416 64.757 23.416C67.925 23.416 70.485 21.784 71.957 19.384L69.461 18.04ZM90.4252 14.904C90.4252 10.232 86.8092 6.39197 81.9133 6.39197C77.0173 6.39197 73.4013 10.232 73.4013 14.904C73.4013 19.576 77.0173 23.416 81.9133 23.416C86.8092 23.416 90.4252 19.576 90.4252 14.904ZM87.4492 14.904C87.4492 18.2 85.1133 20.632 81.9133 20.632C78.7132 20.632 76.4092 18.2 76.4092 14.904C76.4092 11.576 78.7132 9.14397 81.9133 9.14397C85.1133 9.14397 87.4492 11.576 87.4492 14.904ZM116.427 12.28C116.427 8.85597 113.803 6.39197 110.731 6.39197C108.299 6.39197 106.571 7.57597 105.547 9.01597C104.555 7.41597 102.827 6.39197 100.875 6.39197C98.8272 6.39197 97.4193 7.41597 96.5232 8.69597V6.77597H93.6113V23H96.5232V13.144C96.5232 11.064 97.8033 9.14397 100.107 9.14397C102.443 9.14397 103.563 10.84 103.563 13.144V23H106.475V13.144C106.475 11.064 107.755 9.14397 110.027 9.14397C112.395 9.14397 113.515 10.84 113.515 13.144V23H116.427V12.28ZM135.62 16.152C136.388 10.104 132.26 6.39197 127.844 6.39197C123.076 6.39197 119.62 10.232 119.62 14.904C119.62 19.576 122.948 23.416 128.324 23.416C131.172 23.416 133.54 22.296 134.98 20.344L132.58 18.808C131.684 19.96 130.084 20.632 128.324 20.632C125.156 20.632 123.172 18.808 122.724 16.152H135.62ZM132.676 13.656H122.724C123.172 10.968 125.06 9.14397 127.844 9.14397C130.596 9.14397 132.292 10.904 132.676 13.656ZM151.869 9.55997H155.613V6.77597H151.869V3.38397H148.957V6.77597H146.429V9.55997H148.957V17.72C148.957 21.272 150.525 23.16 154.045 23.16C154.685 23.16 155.197 23.096 155.613 23V20.44C155.261 20.472 154.909 20.504 154.429 20.504C151.901 20.504 151.869 18.968 151.869 16.664V9.55997ZM175.05 14.904C175.05 10.232 171.434 6.39197 166.538 6.39197C161.642 6.39197 158.026 10.232 158.026 14.904C158.026 19.576 161.642 23.416 166.538 23.416C171.434 23.416 175.05 19.576 175.05 14.904ZM172.074 14.904C172.074 18.2 169.738 20.632 166.538 20.632C163.338 20.632 161.034 18.2 161.034 14.904C161.034 11.576 163.338 9.14397 166.538 9.14397C169.738 9.14397 172.074 11.576 172.074 14.904ZM201.445 79.8155H219.98C219.997 79.8139 220.012 79.8133 220.027 79.8132C220.035 79.8131 220.044 79.8133 220.052 79.8135C220.065 79.8139 220.079 79.8147 220.095 79.8155H220.403V79.8233L220.424 79.8233L287.124 79.803L276.154 78.4611C275.942 78.3985 275.749 78.2822 275.593 78.1234L230.356 32.3687C230.314 32.3267 230.286 32.2765 230.258 32.2267C230.244 32.2009 230.23 32.1752 230.213 32.1507L220.536 22.428C219.758 21.6461 219.329 20.6036 219.329 19.4973C219.329 18.391 219.758 17.3512 220.536 16.5694L234.393 2.64751C235.167 1.87207 236.215 1.43661 237.309 1.43661C238.402 1.43661 239.45 1.87207 240.224 2.64751L250.121 12.5909C250.165 12.637 250.195 12.6895 250.226 12.7421C250.239 12.7654 250.252 12.7888 250.267 12.8117L295.575 58.3349C295.724 58.4825 295.835 58.6641 295.898 58.8641L304.263 84.7C304.269 84.7188 304.269 84.7377 304.267 84.7565C304.266 84.7749 304.264 84.7933 304.268 84.8117C304.274 84.8372 304.281 84.8624 304.288 84.8876L304.289 84.8893C304.309 84.9604 304.329 85.0314 304.329 85.1095C304.329 85.1515 304.318 85.1895 304.307 85.2278C304.3 85.2526 304.293 85.2775 304.289 85.3037L304.285 85.3317C304.276 85.3849 304.268 85.4351 304.252 85.4872C304.197 85.6791 304.101 85.8563 303.969 86.0058C303.963 86.0102 303.96 86.017 303.958 86.0236C303.956 86.029 303.954 86.0341 303.95 86.0377L303.942 86.043C303.82 86.1689 303.674 86.2686 303.513 86.3363C303.351 86.4039 303.178 86.438 303.003 86.4366H220.652L220.582 86.4367C220.523 86.4369 220.463 86.4372 220.403 86.4361V86.46H194.774V43.9561H201.445V79.8155ZM236.169 28.4142L277.692 69.5974L276.165 74.9215L233.165 31.4326L236.169 28.4142ZM279.723 67.8768L238.038 26.5367L244.489 20.0558L285.8 61.6698V67.8768H279.723ZM287.449 59.5662L246.36 18.1756L249.11 15.4125L292.02 58.5237L287.449 59.5662ZM280.178 70.5361H287.124C287.475 70.5361 287.811 70.3961 288.059 70.1467C288.308 69.8973 288.447 69.5591 288.447 69.2065V62.066L293.76 60.8533L300.967 83.1124L278.5 76.3868L280.178 70.5361ZM221.976 19.4973C221.976 19.1011 222.129 18.7314 222.407 18.4495L236.264 4.52769C236.542 4.25015 236.917 4.09433 237.309 4.09433C237.7 4.09433 238.076 4.25015 238.353 4.52769L247.278 13.4951L231.336 29.5126L222.41 20.5451C222.272 20.4083 222.162 20.2452 222.088 20.0653C222.013 19.8853 221.975 19.6922 221.976 19.4973ZM14.7129 87.172C7.72559 87.172 2.42578 83.9024 0 78.9981L5.27344 75.2276C7.17188 78.5499 10.7051 80.4483 14.792 80.4483C19.5645 80.4483 23.1768 78.1544 23.1768 74.9112C23.1768 71.0172 17.6852 68.6515 12.7613 66.5303L12.6299 66.4737C7.64649 64.2589 2.10938 61.6749 2.10938 55.004C2.10938 48.0431 8.14746 43.1915 15.7939 43.1915C21.8584 43.1915 26.3936 46.1183 28.1338 50.7852L23.1768 54.213C21.8584 51.339 18.9316 49.7306 15.8467 49.7306C11.9443 49.7306 8.83301 52.1563 8.83301 55.1622C8.83301 58.0876 11.8791 59.357 16.1352 61.1307C16.7126 61.3713 17.3123 61.6212 17.9297 61.8858C24.6533 64.839 29.874 68.0821 29.874 74.7794C29.874 82.3204 23.335 87.172 14.7129 87.172ZM33.5918 68.6622V62.8087L54.4219 62.8087V68.6622H33.5918ZM80.5781 87.1456C68.5283 87.1456 58.5352 77.2315 58.5352 65.2345C58.5352 53.2638 68.5283 43.2179 80.4727 43.2179C85.9834 43.297 91.0723 45.6436 95.2383 49.7042L91.3623 54.9513C88.3828 51.9718 84.5068 49.9942 80.3408 49.9942C72.6416 49.9942 65.2852 56.7442 65.2852 65.2608C65.2852 73.8302 72.7471 80.4483 80.3672 80.4483C84.7178 80.4483 88.4619 78.2862 91.3887 75.3858L95.2383 80.7647C91.5732 84.377 86.9062 87.1456 80.5781 87.1456ZM118.6 87.1456C106.523 87.1456 96.6621 77.2843 96.6621 65.2608C96.6621 53.1319 106.523 43.2179 118.626 43.2179C130.702 43.2179 140.616 53.1319 140.616 65.2608C140.616 77.2843 130.702 87.1456 118.6 87.1456ZM118.6 80.3956C126.984 80.3956 133.866 73.5665 133.866 65.2081C133.866 56.797 126.984 49.9415 118.6 49.9415C110.215 49.9415 103.386 56.797 103.386 65.2081C103.386 73.5665 110.215 80.3956 118.6 80.3956ZM166.641 87.1456C154.564 87.1456 144.703 77.2843 144.703 65.2608C144.703 53.1319 154.564 43.2179 166.667 43.2179C178.743 43.2179 188.657 53.1319 188.657 65.2608C188.657 77.2843 178.743 87.1456 166.641 87.1456ZM166.641 80.3956C175.025 80.3956 181.907 73.5665 181.907 65.2081C181.907 56.797 175.025 49.9415 166.641 49.9415C158.256 49.9415 151.427 56.797 151.427 65.2081C151.427 73.5665 158.256 80.3956 166.641 80.3956Z" fill="#0B1215"/>
</svg>
